<mxfile host="app.diagrams.net" modified="2021-01-29T07:10:07.226Z" agent="5.0 (Windows NT 10.0; WOW64) AppleWebKit/537.36 (KHTML, like Gecko) Chrome/71.0.3578.98 Safari/537.36" etag="BIyat166L9w5GUvN2nT5" version="14.1.9" type="github">
  <diagram id="xJLEUGkyIic52pq7Wpdc" name="第 1 页">
    <mxGraphModel dx="1635" dy="867" grid="1" gridSize="10" guides="1" tooltips="1" connect="1" arrows="1" fold="1" page="1" pageScale="1" pageWidth="827" pageHeight="1169" math="0" shadow="0">
      <root>
        <mxCell id="0" />
        <mxCell id="1" parent="0" />
        <mxCell id="mrjxyYoaInztzKiMXqxH-8" style="edgeStyle=orthogonalEdgeStyle;rounded=0;orthogonalLoop=1;jettySize=auto;html=1;entryX=0;entryY=0.5;entryDx=0;entryDy=0;" edge="1" parent="1" source="mrjxyYoaInztzKiMXqxH-1" target="mrjxyYoaInztzKiMXqxH-4">
          <mxGeometry relative="1" as="geometry" />
        </mxCell>
        <mxCell id="mrjxyYoaInztzKiMXqxH-9" style="edgeStyle=orthogonalEdgeStyle;rounded=0;orthogonalLoop=1;jettySize=auto;html=1;entryX=0;entryY=0.5;entryDx=0;entryDy=0;" edge="1" parent="1" source="mrjxyYoaInztzKiMXqxH-1" target="mrjxyYoaInztzKiMXqxH-5">
          <mxGeometry relative="1" as="geometry" />
        </mxCell>
        <mxCell id="mrjxyYoaInztzKiMXqxH-1" value="开始" style="rounded=1;whiteSpace=wrap;html=1;" vertex="1" parent="1">
          <mxGeometry x="10" y="360" width="120" height="60" as="geometry" />
        </mxCell>
        <mxCell id="mrjxyYoaInztzKiMXqxH-6" style="edgeStyle=orthogonalEdgeStyle;rounded=0;orthogonalLoop=1;jettySize=auto;html=1;entryX=0;entryY=0.5;entryDx=0;entryDy=0;" edge="1" parent="1" source="mrjxyYoaInztzKiMXqxH-4" target="mrjxyYoaInztzKiMXqxH-7">
          <mxGeometry relative="1" as="geometry">
            <mxPoint x="410" y="260" as="targetPoint" />
          </mxGeometry>
        </mxCell>
        <mxCell id="mrjxyYoaInztzKiMXqxH-4" value="&amp;nbsp;商品已下架" style="rounded=0;whiteSpace=wrap;html=1;" vertex="1" parent="1">
          <mxGeometry x="200" y="230" width="120" height="60" as="geometry" />
        </mxCell>
        <mxCell id="mrjxyYoaInztzKiMXqxH-28" style="edgeStyle=orthogonalEdgeStyle;rounded=0;orthogonalLoop=1;jettySize=auto;html=1;entryX=0;entryY=0.5;entryDx=0;entryDy=0;" edge="1" parent="1" source="mrjxyYoaInztzKiMXqxH-5" target="mrjxyYoaInztzKiMXqxH-11">
          <mxGeometry relative="1" as="geometry" />
        </mxCell>
        <mxCell id="mrjxyYoaInztzKiMXqxH-29" style="edgeStyle=orthogonalEdgeStyle;rounded=0;orthogonalLoop=1;jettySize=auto;html=1;exitX=1;exitY=0.5;exitDx=0;exitDy=0;entryX=0;entryY=0.5;entryDx=0;entryDy=0;" edge="1" parent="1" source="mrjxyYoaInztzKiMXqxH-5" target="mrjxyYoaInztzKiMXqxH-12">
          <mxGeometry relative="1" as="geometry" />
        </mxCell>
        <mxCell id="mrjxyYoaInztzKiMXqxH-30" style="edgeStyle=orthogonalEdgeStyle;rounded=0;orthogonalLoop=1;jettySize=auto;html=1;exitX=1;exitY=0.5;exitDx=0;exitDy=0;entryX=0;entryY=0.5;entryDx=0;entryDy=0;" edge="1" parent="1" source="mrjxyYoaInztzKiMXqxH-5" target="mrjxyYoaInztzKiMXqxH-15">
          <mxGeometry relative="1" as="geometry" />
        </mxCell>
        <mxCell id="mrjxyYoaInztzKiMXqxH-31" style="edgeStyle=orthogonalEdgeStyle;rounded=0;orthogonalLoop=1;jettySize=auto;html=1;entryX=0;entryY=0.5;entryDx=0;entryDy=0;" edge="1" parent="1" source="mrjxyYoaInztzKiMXqxH-5" target="mrjxyYoaInztzKiMXqxH-13">
          <mxGeometry relative="1" as="geometry" />
        </mxCell>
        <mxCell id="mrjxyYoaInztzKiMXqxH-5" value="&amp;nbsp;商品上架" style="rounded=0;whiteSpace=wrap;html=1;" vertex="1" parent="1">
          <mxGeometry x="200" y="450" width="120" height="60" as="geometry" />
        </mxCell>
        <mxCell id="mrjxyYoaInztzKiMXqxH-7" value="相似商品搜索" style="rounded=0;whiteSpace=wrap;html=1;" vertex="1" parent="1">
          <mxGeometry x="414" y="230" width="120" height="60" as="geometry" />
        </mxCell>
        <mxCell id="mrjxyYoaInztzKiMXqxH-32" style="edgeStyle=orthogonalEdgeStyle;rounded=0;orthogonalLoop=1;jettySize=auto;html=1;" edge="1" parent="1" source="mrjxyYoaInztzKiMXqxH-11" target="mrjxyYoaInztzKiMXqxH-33">
          <mxGeometry relative="1" as="geometry">
            <mxPoint x="610" y="420" as="targetPoint" />
          </mxGeometry>
        </mxCell>
        <mxCell id="mrjxyYoaInztzKiMXqxH-11" value="未开卡" style="rounded=0;whiteSpace=wrap;html=1;" vertex="1" parent="1">
          <mxGeometry x="414" y="390" width="120" height="60" as="geometry" />
        </mxCell>
        <mxCell id="mrjxyYoaInztzKiMXqxH-34" style="edgeStyle=orthogonalEdgeStyle;rounded=0;orthogonalLoop=1;jettySize=auto;html=1;" edge="1" parent="1" source="mrjxyYoaInztzKiMXqxH-12" target="mrjxyYoaInztzKiMXqxH-35">
          <mxGeometry relative="1" as="geometry">
            <mxPoint x="620" y="530" as="targetPoint" />
          </mxGeometry>
        </mxCell>
        <mxCell id="mrjxyYoaInztzKiMXqxH-12" value="未绑卡" style="rounded=0;whiteSpace=wrap;html=1;" vertex="1" parent="1">
          <mxGeometry x="414" y="500" width="120" height="60" as="geometry" />
        </mxCell>
        <mxCell id="mrjxyYoaInztzKiMXqxH-19" style="edgeStyle=orthogonalEdgeStyle;rounded=0;orthogonalLoop=1;jettySize=auto;html=1;entryX=0;entryY=0.5;entryDx=0;entryDy=0;" edge="1" parent="1" source="mrjxyYoaInztzKiMXqxH-13" target="mrjxyYoaInztzKiMXqxH-20">
          <mxGeometry relative="1" as="geometry">
            <mxPoint x="590" y="800" as="targetPoint" />
          </mxGeometry>
        </mxCell>
        <mxCell id="mrjxyYoaInztzKiMXqxH-13" value="已开卡" style="rounded=0;whiteSpace=wrap;html=1;" vertex="1" parent="1">
          <mxGeometry x="414" y="770" width="120" height="60" as="geometry" />
        </mxCell>
        <mxCell id="mrjxyYoaInztzKiMXqxH-16" style="edgeStyle=orthogonalEdgeStyle;rounded=0;orthogonalLoop=1;jettySize=auto;html=1;" edge="1" parent="1" source="mrjxyYoaInztzKiMXqxH-15" target="mrjxyYoaInztzKiMXqxH-17">
          <mxGeometry relative="1" as="geometry">
            <mxPoint x="620" y="660" as="targetPoint" />
          </mxGeometry>
        </mxCell>
        <mxCell id="mrjxyYoaInztzKiMXqxH-15" value="限制营销" style="rounded=0;whiteSpace=wrap;html=1;" vertex="1" parent="1">
          <mxGeometry x="414" y="630" width="120" height="60" as="geometry" />
        </mxCell>
        <mxCell id="mrjxyYoaInztzKiMXqxH-17" value="隐藏乐花卡支付" style="rounded=0;whiteSpace=wrap;html=1;" vertex="1" parent="1">
          <mxGeometry x="620" y="630" width="120" height="60" as="geometry" />
        </mxCell>
        <mxCell id="mrjxyYoaInztzKiMXqxH-21" value="N" style="edgeStyle=orthogonalEdgeStyle;rounded=0;orthogonalLoop=1;jettySize=auto;html=1;" edge="1" parent="1" source="mrjxyYoaInztzKiMXqxH-20" target="mrjxyYoaInztzKiMXqxH-22">
          <mxGeometry relative="1" as="geometry">
            <mxPoint x="770" y="800" as="targetPoint" />
          </mxGeometry>
        </mxCell>
        <mxCell id="mrjxyYoaInztzKiMXqxH-23" value="Y" style="edgeStyle=orthogonalEdgeStyle;rounded=0;orthogonalLoop=1;jettySize=auto;html=1;exitX=0.5;exitY=1;exitDx=0;exitDy=0;entryX=0;entryY=0.5;entryDx=0;entryDy=0;" edge="1" parent="1" source="mrjxyYoaInztzKiMXqxH-20" target="mrjxyYoaInztzKiMXqxH-24">
          <mxGeometry relative="1" as="geometry">
            <mxPoint x="788" y="938" as="targetPoint" />
          </mxGeometry>
        </mxCell>
        <mxCell id="mrjxyYoaInztzKiMXqxH-20" value="是否已展示&lt;br&gt;首次引导" style="rhombus;whiteSpace=wrap;html=1;" vertex="1" parent="1">
          <mxGeometry x="620" y="760" width="80" height="80" as="geometry" />
        </mxCell>
        <mxCell id="mrjxyYoaInztzKiMXqxH-25" style="edgeStyle=orthogonalEdgeStyle;rounded=0;orthogonalLoop=1;jettySize=auto;html=1;" edge="1" parent="1" source="mrjxyYoaInztzKiMXqxH-22" target="mrjxyYoaInztzKiMXqxH-24">
          <mxGeometry relative="1" as="geometry" />
        </mxCell>
        <mxCell id="mrjxyYoaInztzKiMXqxH-22" value="首次引导" style="rounded=0;whiteSpace=wrap;html=1;" vertex="1" parent="1">
          <mxGeometry x="790" y="770" width="120" height="60" as="geometry" />
        </mxCell>
        <mxCell id="mrjxyYoaInztzKiMXqxH-26" style="edgeStyle=orthogonalEdgeStyle;rounded=0;orthogonalLoop=1;jettySize=auto;html=1;" edge="1" parent="1" source="mrjxyYoaInztzKiMXqxH-24" target="mrjxyYoaInztzKiMXqxH-27">
          <mxGeometry relative="1" as="geometry">
            <mxPoint x="1010" y="920" as="targetPoint" />
          </mxGeometry>
        </mxCell>
        <mxCell id="mrjxyYoaInztzKiMXqxH-24" value="调用转链服务" style="rounded=0;whiteSpace=wrap;html=1;" vertex="1" parent="1">
          <mxGeometry x="790" y="890" width="120" height="60" as="geometry" />
        </mxCell>
        <mxCell id="mrjxyYoaInztzKiMXqxH-27" value="调转第三方" style="rounded=0;whiteSpace=wrap;html=1;" vertex="1" parent="1">
          <mxGeometry x="970" y="890" width="120" height="60" as="geometry" />
        </mxCell>
        <mxCell id="mrjxyYoaInztzKiMXqxH-33" value="跳乐花卡开卡页面" style="rounded=0;whiteSpace=wrap;html=1;" vertex="1" parent="1">
          <mxGeometry x="620" y="390" width="120" height="60" as="geometry" />
        </mxCell>
        <mxCell id="mrjxyYoaInztzKiMXqxH-35" value="&lt;span style=&quot;font-size: 13.3333px&quot;&gt;跳乐花卡绑卡页面&lt;/span&gt;" style="rounded=0;whiteSpace=wrap;html=1;" vertex="1" parent="1">
          <mxGeometry x="620" y="500" width="120" height="60" as="geometry" />
        </mxCell>
      </root>
    </mxGraphModel>
  </diagram>
</mxfile>
